<svg width="120" height="120" viewBox="0 0 120 120" fill="none" xmlns="http://www.w3.org/2000/svg">
<g filter="url(#filter0_ddi_259_1458)">
<path d="M42.6012 69.2297C37.401 69.2297 33.156 64.5077 33.156 58.7237C33.156 52.9402 37.2949 48.2173 42.6012 48.2173C47.8542 48.2173 52.1521 52.9402 52.0461 58.7237C52.0461 64.5077 47.8542 69.2297 42.6012 69.2297ZM77.4686 69.2297C72.2681 69.2297 68.0181 64.5077 68.0181 58.7237C68.0181 52.9402 72.1621 48.2173 77.4686 48.2173C82.7216 48.2173 87.0196 52.9402 86.9136 58.7237C86.9136 64.5077 82.7746 69.2297 77.4686 69.2297ZM50.6246 21.6155L49.0808 18.8008L45.9142 19.3285C38.5938 20.5486 31.631 22.7346 25.1253 25.7309L23.9806 26.2581L23.2734 27.3012C10.2071 46.5728 6.62706 65.5442 8.39966 84.1817L8.59291 86.2132L10.2437 87.4127C18.9406 93.7332 27.3689 97.5952 35.6344 100.129L39.5809 101.339L45.1487 87.7537C54.6966 90.1137 65.2941 90.1147 74.8431 87.7562L80.3766 101.342L84.3321 100.129C92.5846 97.5972 101.067 93.7367 109.731 87.4062L111.361 86.2157L111.564 84.2077C113.744 62.6072 108.078 43.7894 96.7716 27.2833L96.0621 26.2479L94.9211 25.7259C88.3816 22.735 81.4241 20.5498 74.1526 19.3294L71.0641 18.8111L69.4916 21.5192C69.0541 22.273 68.6056 23.1239 68.1801 23.9851C62.7186 23.4242 57.2781 23.423 51.8611 23.9833C51.4391 23.1375 51.0106 22.3197 50.6246 21.6155ZM33.5699 83.0517C34.5598 83.6222 35.5967 84.1797 36.6259 84.6912L34.3801 90.1707C28.7773 88.1302 23.0899 85.3192 17.2361 81.2792C16.1137 65.5897 19.3027 49.7557 30.0579 33.432C34.5462 31.4569 39.2656 29.9147 44.1784 28.8655C44.4796 29.4923 44.7598 30.104 44.99 30.6466L46.3545 33.8626L49.811 33.3556C56.5741 32.3637 63.3841 32.3624 70.2596 33.3569L73.7101 33.856L75.0716 30.6466C75.3086 30.0879 75.5816 29.4781 75.8696 28.8668C80.7606 29.917 85.4881 31.4613 90.0126 33.4413C99.3886 47.5436 104.119 63.2727 102.741 81.2767C96.9166 85.3132 91.2091 88.1252 85.5946 90.1682L83.3656 84.6957C84.3976 84.1832 85.4376 83.6237 86.4306 83.0517C88.8796 81.6407 91.5176 79.8807 93.1991 78.1992L86.8011 71.8017C85.9826 72.6202 84.1831 73.9047 81.9136 75.2122C79.6921 76.4922 77.4881 77.5267 76.0801 77.9922C66.0611 81.3047 53.9396 81.3047 43.9202 77.9922C42.5123 77.5267 40.3083 76.4922 38.0867 75.2122C35.8172 73.9047 34.0177 72.6202 33.1989 71.8017L26.8013 78.1992C28.4826 79.8807 31.1206 81.6407 33.5699 83.0517Z" fill="#1F2228"/>
</g>
<defs>
<filter id="filter0_ddi_259_1458" x="5.97656" y="17.8008" width="108.047" height="86.541" filterUnits="userSpaceOnUse" color-interpolation-filters="sRGB">
<feFlood flood-opacity="0" result="BackgroundImageFix"/>
<feColorMatrix in="SourceAlpha" type="matrix" values="0 0 0 0 0 0 0 0 0 0 0 0 0 0 0 0 0 0 127 0" result="hardAlpha"/>
<feMorphology radius="1" operator="dilate" in="SourceAlpha" result="effect1_dropShadow_259_1458"/>
<feOffset/>
<feComposite in2="hardAlpha" operator="out"/>
<feColorMatrix type="matrix" values="0 0 0 0 0 0 0 0 0 0 0 0 0 0 0 0 0 0 1 0"/>
<feBlend mode="normal" in2="BackgroundImageFix" result="effect1_dropShadow_259_1458"/>
<feColorMatrix in="SourceAlpha" type="matrix" values="0 0 0 0 0 0 0 0 0 0 0 0 0 0 0 0 0 0 127 0" result="hardAlpha"/>
<feOffset dy="1"/>
<feGaussianBlur stdDeviation="1"/>
<feComposite in2="hardAlpha" operator="out"/>
<feColorMatrix type="matrix" values="0 0 0 0 0 0 0 0 0 0 0 0 0 0 0 0 0 0 0.08 0"/>
<feBlend mode="normal" in2="effect1_dropShadow_259_1458" result="effect2_dropShadow_259_1458"/>
<feBlend mode="normal" in="SourceGraphic" in2="effect2_dropShadow_259_1458" result="shape"/>
<feColorMatrix in="SourceAlpha" type="matrix" values="0 0 0 0 0 0 0 0 0 0 0 0 0 0 0 0 0 0 127 0" result="hardAlpha"/>
<feOffset dy="1"/>
<feGaussianBlur stdDeviation="0.5"/>
<feComposite in2="hardAlpha" operator="arithmetic" k2="-1" k3="1"/>
<feColorMatrix type="matrix" values="0 0 0 0 1 0 0 0 0 1 0 0 0 0 1 0 0 0 0.12 0"/>
<feBlend mode="normal" in2="shape" result="effect3_innerShadow_259_1458"/>
</filter>
</defs>
</svg>
