<svg width="270" height="270" viewBox="0 0 270 270" fill="none" xmlns="http://www.w3.org/2000/svg">
<path d="M225.73 198.63C233.11 181.42 230.44 162.04 226.66 144.32C223.98 131.08 220.88 117.91 218.5 104.62C216.96 95.76 216.25 86.69 217.58 77.76C219.16 66.33 223.17 55.44 225.59 44.19C229.51 26.55 223.82 17.76 206.16 13.81C181.92 9.35003 153 23.86 138.13 42.75C128.45 55.01 123.76 70.56 122.74 86C121.33 98.02 125.4 115.81 112.73 122.73C103.25 127.57 93.0598 121.36 87.0898 113.85C82.4398 108.56 79.7598 101.89 75.3498 96.44C72.2398 92.39 67.9998 91.69 63.9998 92.94C59.5198 94.58 56.9398 99.26 54.8098 103.26C54.3498 103.94 53.9598 105.25 53.3798 106.2C53.3598 106.27 53.3398 106.33 53.3098 106.39C49.6898 113.89 41.3898 117.01 35.1898 121.91C31.8998 124.73 30.0098 128.76 29.2198 132.96C25.7198 151.6 23.7398 187.91 47.2098 193.69C54.6698 195.19 62.5898 193.61 69.9098 192.24C89.5598 188.67 109.01 181.2 129.1 181.2C131.51 181.2 133.93 181.31 136.36 181.54C171.31 184.75 184.34 219.4 204.39 218.81C215.16 217.86 221.89 207.77 225.73 198.63ZM230.78 152.5C233.69 167.95 234.36 184.47 228.19 199.24C224.13 209.66 215.34 221.34 203.46 221.34C202.25 221.34 201.01 221.22 199.74 220.96C191.06 218.99 184.49 212.45 178.03 206.73C162.26 191.62 146.23 181.91 123.67 183.83C108.72 184.99 94.4198 189.48 79.8598 192.65C66.9998 195.1 51.0698 200.53 39.1298 192.96C21.4198 181.28 23.2398 148.62 27.3098 130.28C30.0098 117.41 44.3598 116.21 50.4898 106.33C52.2598 102.09 54.2298 97.73 57.2898 94.24C57.4398 94.1 57.6098 93.94 57.7798 93.75C57.7798 93.74 57.7898 93.74 57.7998 93.73C58.0098 93.46 58.2498 93.2 58.4798 92.94C58.4998 92.92 58.5298 92.9 58.5498 92.89C58.8298 92.69 59.0998 92.48 59.3898 92.28C60.5798 91.54 61.8398 90.94 63.1398 90.51C63.2398 90.47 63.3498 90.44 63.4498 90.41C66.2998 89.54 69.3198 89.53 72.2298 90.84C79.9798 94.87 82.3598 104.21 87.6898 110.59C93.5898 118.75 104.83 126.47 114.14 118.75C120.11 113.14 119.51 104.14 119.85 96.62C119.93 91.03 120.11 85.43 120.83 79.88C123 60.79 131.95 42.29 147 30.05C164.2 16.31 187.51 6.53003 209.64 12.06C216.9 14.15 224.75 18.04 227.68 25.46C233.21 39.67 221.79 62.08 220.12 77.57C218.24 89.24 220.19 101.29 222.57 112.7C225.27 125.97 228.31 139.18 230.78 152.5Z" fill="#856EFC"/>
</svg>
