<svg width="270" height="270" viewBox="0 0 270 270" fill="none" xmlns="http://www.w3.org/2000/svg">
<path d="M221.38 219.44C235.87 203.71 226.4 175.08 217.05 158.76C209.15 144.87 193.67 134.4 192.72 117.29C192.22 109.28 194.82 101.41 198.22 94.27C202.09 86.43 207.31 79.23 210.26 70.95C213.69 61.57 213.42 49.42 205.35 42.53C188.84 29.41 163.52 40.36 154.83 57.73C151.04 65.55 150 74.28 149.35 82.83C147.97 97.02 149.86 117.55 134.27 124.35C105.58 134.15 102.42 75.49 96.6798 57.72C92.6698 40.98 83.2198 25.76 63.6798 30.57C49.6598 34.29 39.9398 47.92 38.4998 62.02C37.7198 69.48 39.5198 77.14 42.5298 83.95C42.7298 84.33 42.9498 84.68 43.1798 85.02C44.8398 87.58 47.1298 89.58 49.2298 91.77C49.2698 91.81 49.2998 91.85 49.3398 91.89C51.9598 94.53 54.3898 97.33 56.0498 100.7C58.3098 105.39 58.8998 112.2 54.6498 115.94C51.2198 118.03 46.9798 116.78 43.2198 116.58C35.7998 115.79 28.1798 118.25 23.5398 124.25C18.6398 130.06 14.8198 137.73 16.1098 145.5C17.6598 154.79 26.6298 160.36 35.4698 156.59C46.8498 152.79 58.2698 144.46 70.4598 144.46C72.8498 144.46 75.2798 144.78 77.7398 145.52C89.3998 149.48 91.5498 163.09 86.1298 173.02C80.9298 183.22 70.9598 190.22 66.6898 200.98C60.0998 215.44 63.9798 234.81 82.9698 234.14C96.6298 232.28 108.75 223.74 117.88 213.79C122.79 208.23 126.94 201.78 130.22 195.18C134.57 187.33 137.01 174.22 148.27 174.54C154.09 174.64 158.74 178.86 162.32 183.06C171.78 194.27 174.65 209.48 183.74 220.88C194.62 234.05 210.59 230.98 221.38 219.44ZM230.36 187.93C233.09 201.53 230.63 216.41 218.91 225.11C206.6 234.83 191.59 234.72 181.45 222.02C170.73 209.33 166.99 182.59 149.89 177.22C144.05 176.04 139.87 180.17 137.72 185.12C135.77 189.16 134.03 193.3 131.96 197.28C127.84 205.34 122.64 212.91 116.14 219.24C106.91 227.88 93.7498 236.64 80.6998 236.64C80.5098 236.64 80.3198 236.64 80.1398 236.63C59.3098 234.75 57.5198 211.73 65.9798 196.64C70.5898 187.59 79.0198 181.14 83.7498 172.18C88.7498 163.23 87.0798 150.81 76.1598 147.64C68.5498 145.47 60.7498 148.49 53.7698 151.4C45.0298 154.6 33.5498 163.01 24.2198 159.35C6.03984 151.23 13.5198 127.37 26.6298 117.99C31.2398 114.72 37.0198 113.71 42.5798 114.06C46.0798 114.07 49.9398 115.51 53.2398 113.89C56.9298 109.83 55.1398 103.34 52.3498 99.28C50.8498 97.07 49.0698 95.15 47.2198 93.3C47.1798 93.26 47.1398 93.22 47.0998 93.18C45.1898 91.32 43.2998 89.38 41.7398 87.23C41.5298 86.96 41.3098 86.68 41.1098 86.4C41.1098 86.4 41.1098 86.4 41.1098 86.39C41.0898 86.36 41.0698 86.34 41.0498 86.3C40.8998 86.04 40.7598 85.78 40.6098 85.52C40.5998 85.5 40.5898 85.48 40.5698 85.45C40.3998 85.17 40.2398 84.9 40.0898 84.61C40.0798 84.6 40.0798 84.59 40.0698 84.58C39.3198 83.21 38.7298 81.76 38.3398 80.19C38.3398 80.2 38.3498 80.21 38.3498 80.22C38.3698 80.27 38.3998 80.32 38.4198 80.37C38.2998 80.16 38.2498 79.94 38.2498 79.75C36.3398 73.93 35.3898 67.79 36.0498 61.69C37.5098 47.34 46.9998 33.55 60.8798 28.8C81.0698 22.25 93.6598 35.95 98.3498 54.37C100.87 63.21 102.5 72.27 104.44 81.25C107.55 94.5 112.96 127.55 132.3 122.4C148.62 116.85 145.38 91.76 147.26 77.94C148.03 70.6 149.36 63.16 152.65 56.5C161.95 38.01 188.6 26.69 206.35 40.12C215.78 47.5 216.51 61.26 212.61 71.8C206.8 87.41 193.13 101.24 195.4 119C197.4 133.95 210.64 143.33 218.03 155.58C224.22 165.39 228.34 176.51 230.36 187.93Z" fill="#856EFC"/>
</svg>
