<svg width="270" height="270" viewBox="0 0 270 270" fill="none" xmlns="http://www.w3.org/2000/svg">
<path d="M53.7098 141.87C54.4098 133.1 57.3498 124.52 61.9898 117C51.1498 116.05 40.2798 114.83 29.3798 114.79C21.5098 114.58 13.6798 115.59 5.81977 115.6C14.7798 124.93 26.6398 130.77 38.4298 135.62C43.4998 137.7 48.4098 140.38 53.7098 141.87ZM61.1898 168.58C61.2098 168.55 61.2398 168.52 61.2698 168.5C55.9898 162.22 52.8598 154.5 53.4898 144.99C53.3598 144.95 53.2298 144.92 53.1098 144.89C51.8398 144.52 50.5898 144.09 49.3598 143.63C49.2898 143.82 49.1698 143.99 49.0098 144.13C43.6398 148.83 38.5498 153.86 33.0598 158.42C28.7698 162.04 24.8198 166.05 20.3298 169.46C16.0898 173.06 8.21977 178.73 6.84977 184.74C8.05977 184.39 9.57977 184.33 10.4698 184.05C14.2798 183.41 18.1898 183.06 21.9998 182.46C35.4698 179.57 49.5398 176.11 61.1898 168.58ZM63.6698 114.43C64.3498 113.44 65.0698 112.47 65.8198 111.53C62.6798 107.33 59.7298 102.98 56.9798 98.48C56.7498 98.66 56.4798 98.77 56.1898 98.8C46.2798 100.53 36.2998 102.44 26.6298 105.09C23.1798 106.62 10.1098 108.93 6.17977 112.54C15.5698 112.43 24.9398 111.36 34.3498 111.83C43.8498 112.21 53.2998 113.16 62.7598 114.01C63.1498 114.06 63.4498 114.21 63.6698 114.43ZM73.8898 179.11C73.8898 179.09 73.8998 179.08 73.8998 179.07C69.9698 176.65 66.3498 173.89 63.2798 170.73C61.7998 172.38 57.9498 173.92 56.7098 174.76C42.5298 181.37 27.0998 185.2 11.5898 186.94C10.1798 187.17 8.74977 187.42 7.38977 187.83C7.33977 187.85 7.28977 187.87 7.22977 187.89C8.15977 188.57 9.52977 188.74 10.5698 189.07C15.6198 190.1 20.8798 190.46 25.9798 191.05C42.2998 193.55 59.0198 190.74 72.5198 180.87C72.8998 180.6 73.2898 180.34 73.6798 180.07C73.7398 179.74 73.8098 179.42 73.8898 179.11ZM100.04 190.03C99.7598 189.97 99.4898 189.91 99.2098 189.85C92.0498 187.72 84.3698 184.88 77.3798 181.08C77.2998 181.15 77.2298 181.21 77.1498 181.27C76.8798 181.48 76.5998 181.69 76.3198 181.89C72.8598 197.82 65.8398 255.39 78.7098 259.94C78.6898 258.37 79.6398 256.19 79.6398 255.02C81.4498 246.03 84.5398 237.36 86.6398 228.44C89.4598 215.11 94.3398 202.38 100.04 190.03ZM102.6 88.88C102.8 87.82 103.06 86.98 103.37 86.33C93.4698 74.01 81.8298 63.65 69.2198 54.26C59.7598 46.22 49.1098 39.56 38.0498 34.05C37.9698 34.04 37.8998 34.03 37.8298 34.01C37.7998 34.08 37.7798 34.14 37.7598 34.21C35.7898 47.53 46.9998 72.25 52.7798 84.78C56.4398 91.92 60.7098 98.69 64.9998 105.46C65.8898 106.73 66.7698 108.02 67.7198 109.25C69.3298 107.41 71.0598 105.69 72.8898 104.09C75.2998 102.02 77.8798 100.15 80.4298 98.25C79.7798 98.05 79.1298 97.87 78.5398 97.55C76.7898 96.63 76.6998 93.93 78.4998 93.01C81.4898 91.66 84.9498 93.06 87.9498 93.78C87.0498 91.85 85.6798 88.89 88.3198 87.65C90.9898 86.75 93.0398 89.67 95.3898 90.45C95.4298 88.11 95.7098 84.43 99.0298 85.42C100.62 86.06 101.42 87.73 102.6 88.88ZM117.04 224.93C120.83 215.36 125.61 206.1 127.92 196C119.59 194.64 111.38 192.54 103.13 190.7C99.2698 199 95.6598 207.5 92.9498 216.27C90.3498 225.28 88.4998 234.5 85.6898 243.47C84.3698 248.18 83.1098 252.93 82.2198 257.75C82.0298 258.45 81.9898 259.46 81.7498 260.29C87.3598 260.21 92.4598 257.17 96.9898 254.07C107.15 247.17 113.05 236.23 117.04 224.93ZM117.95 85.4C118.13 84.92 118.38 84.49 118.68 84.13C116.52 80.85 114.44 77.54 112.39 74.2C103.07 60.31 94.5798 50.66 79.3198 43.25C71.9198 39.71 64.4098 36.2 56.3198 34.57C53.2998 34.16 45.0798 31.14 40.6198 31.95C47.6698 35.2 54.1398 39.81 60.7798 43.81C68.1398 49.18 75.0698 55.13 82.3098 60.67C90.9198 67.75 98.6698 75.87 105.77 84.45C105.8 84.49 105.82 84.52 105.85 84.56C107.31 84.75 108.98 86.42 110.42 88.68C111.43 86.11 109.3 81.86 112.43 80.48C115.49 79.89 115.79 84.14 117.95 85.4ZM134.99 84.49C134.95 84.4 134.91 84.31 134.88 84.21C132.65 73.99 130.67 63.66 125.43 54.5C118.18 41.7 110.27 29.22 100.29 18.34C98.3298 15.91 96.2398 13.64 93.8498 11.69C91.8798 15.12 92.8598 19.66 92.5798 23.49C92.6398 28.56 93.0098 33.57 93.6898 38.58C94.2298 42.64 94.8398 46.36 95.7598 50.2C102.49 55.72 108.24 62.44 113.96 71.16C116.08 74.1 117.91 77.59 119.9 80.53C120.33 81.49 121.7 82.91 122.52 84.26C123.66 82.05 125.93 80.01 127.63 83.1C128.19 84.42 128.22 85.91 128.74 87.25C129.84 86.35 130.26 84.73 131.7 84.25C132.88 83.86 134.01 84.77 134.47 85.8C134.65 85.44 134.82 84.98 134.99 84.49ZM145.62 245.34C147.31 246.66 148.89 248.72 150.81 249.84C147.4 241.04 145.64 231.69 143.18 222.59C140.71 214.03 138.41 205.22 136.87 196.46C134.9 196.64 132.92 196.65 130.93 196.45C129.82 201.39 128.12 206.19 126.23 210.88C125.87 211.64 125.53 212.41 125.19 213.18C125.3 213.7 125.34 214.29 125.48 214.78C126.72 218.7 128.62 222.4 130.6 225.96C134.91 232.91 140.01 239.42 145.62 245.34ZM157.46 88.3C158.71 86.67 159.99 85.05 161.35 83.51C156.8 72.56 151.37 61.81 145.82 51.39C138.43 39.65 130.1 28.11 118.55 20.16C112.37 16.29 104.34 7.81002 96.6198 10.11C100.7 13.38 103.65 17.92 107.19 21.75C113.23 28.54 117.97 36.31 122.74 44.01C127.65 51.72 132.12 59.89 134.46 68.78C135.51 72.71 136.25 76.7 137.15 80.66C137.67 80.36 138.31 80.36 139.12 80.82C140.57 82.17 140.3 84.43 141.17 86.1C143.38 85.1 144.33 82.44 146.49 81.45C150.45 81.1 148.7 86.29 148.28 88.53C150.26 87.32 151.28 84.47 153.81 84.42C156.14 84.74 155.9 87.54 155.78 89.31C156.28 89.01 156.82 88.6 157.38 88.38C157.42 88.34 157.44 88.32 157.46 88.3ZM154.07 249.83C168.41 239.75 162.35 206.15 159.29 191.46C159.27 191.4 159.25 191.34 159.24 191.28C156.81 191.94 154.36 192.52 151.89 193.04C147.97 194.23 143.96 195.42 139.9 196.08C142.63 210.99 147.24 225.46 150.83 240.17C151.75 243.44 152.77 246.69 154.07 249.83ZM165.28 66.53C166.03 50.24 165.79 33.57 161.99 17.68C154.86 26.78 151.9 38.84 148.18 49.66C151.29 54.96 154.08 60.44 156.63 65.95C159.11 70.94 161.58 75.92 163.68 81.08C163.73 81.03 163.78 80.99 163.83 80.94C163.75 79.33 164.54 77.05 164.43 75.89C164.76 72.83 165.07 69.58 165.28 66.53ZM182.27 67.82C182.1 67.62 181.98 67.36 181.93 67.03C181.01 58.37 179.7 49.74 177.5 41.31C175.45 33.73 174.09 18.47 164.86 16.7C169.54 36.46 169.4 57.28 167.32 77.4C167.27 77.6 167.23 77.82 167.2 78.06C171.93 74.25 176.96 70.77 182.27 67.82ZM201.33 149.05C201.25 142.12 199.05 135.34 196.75 128.87C193.78 120.34 190.32 110.79 182.53 105.58C180 103.88 177.19 102.69 174.42 101.44C174.1 101.29 173.84 101.05 173.68 100.74L173.67 100.73C173.15 100.15 172.96 99.42 172.95 98.67C169.39 100.1 162.35 100.49 164.28 94.74C161.61 95.23 158.33 94.85 157.43 91.87C154.72 93.61 152.17 91.48 152.79 88.46C149.41 92.94 143.79 93.37 145.63 86.37C142.97 89.56 138.87 90.7 137.79 85.62C137.02 88.62 134.31 91.62 132.13 87.92C129.3 92.24 125.62 90.49 125.22 85.75C124.22 88.11 121.66 91.64 119.76 87.88C117.45 89.83 114.95 87.09 113.72 85.2C114 87.9 113.19 93.5 109.3 91.85C107.9 90.87 107.19 89.14 106.02 87.97C104.81 93.79 101.43 93.09 98.5198 88.81C98.5898 95.83 93.8598 93.58 89.9698 90.82C90.9198 92.57 91.7998 95.19 89.6998 96.48C87.2198 97.63 84.5898 95.53 81.9998 95.57C82.9298 95.96 84.2198 96.33 84.6098 97.3C84.9998 98.02 84.8098 99.04 83.9898 99.43C79.0398 103 74.0298 106.61 69.9498 111.18C66.6798 115.12 64.1898 119.23 61.7798 123.66C55.1698 137.52 53.4198 155.72 64.3898 167.77C77.8098 181.07 96.7098 186.77 114.82 190.18C123.86 192.22 133.1 195.04 142.36 192.54C149.74 190.39 157.3 188.88 164.61 186.54C170.34 184.48 175.79 181.72 181.06 178.68C193.33 173.26 200.65 162.33 201.33 149.05ZM202.13 247.3C202.31 247.23 202.47 247.14 202.63 247.04C202.45 246.91 202.3 246.73 202.17 246.5C195.12 235.42 188.72 223.87 180.97 213.26C175.33 205.64 169.99 197.69 165.5 189.36C164.39 189.74 163.27 190.1 162.15 190.44C162.16 190.45 162.16 190.46 162.16 190.46C164.6 200.91 165.99 211.72 166.13 222.48C166.18 222.52 166.22 222.56 166.26 222.6C174.67 231.5 184.46 239.21 195.41 244.71C197.57 245.74 199.75 246.96 202.13 247.3ZM204.77 244.03C208.05 231.51 206.94 217.6 202.42 205.67C201.56 203.68 200.66 201.7 199.57 199.87C199.19 199.35 198.8 198.67 198.77 198.05C193.24 196.44 187.81 194.45 182.41 192.53C178.48 191.09 174.4 189.73 170.95 187.3C170.08 187.67 169.2 188.02 168.32 188.36C176.27 202.97 187.38 215.56 195.49 230.05C198.44 234.93 201.67 239.62 204.54 244.53C204.62 244.36 204.69 244.19 204.77 244.03ZM232.07 186.25C237.04 188.16 242.11 190.34 247.23 191.66C242.49 185.43 236.01 180.58 230.6 174.93C222.44 166.78 213.67 159.14 203.91 152.98C203.46 155.87 202.75 158.73 201.82 161.5C200.64 164.98 198.83 167.99 196.59 170.64C201.9 174.13 207.71 176.1 213.48 178.51C219.68 181.11 225.73 184.02 232.07 186.25ZM235.31 196.84C238.89 196.07 242.82 195.86 246.26 194.52C235.52 191.43 225.2 186.86 214.96 182.43C208.28 179.55 201.29 177.25 195.11 173.34C194.91 173.21 194.7 173.08 194.48 172.93C189.74 177.61 183.66 181.08 177.68 184.03C176.55 184.65 175.41 185.24 174.25 185.8C177.88 187.88 181.9 189.05 185.82 190.53C194.18 193.51 202.66 196.46 211.44 197.85C219.5 199.08 227.44 198.25 235.31 196.84ZM243.42 59.07C238.11 56.15 228.37 58.51 223.18 58.75C202.48 60.53 182.32 68.69 166.73 82.4C164.13 84.76 162.06 87.27 160.01 89.97C160.29 90.87 160.47 91.82 161.58 91.88C162.36 91.97 163.4 91.67 164.28 91.67C164.29 91.67 164.3 91.67 164.3 91.67C165.38 91.54 166.49 91.42 167.57 91.19C168.74 90.95 169.75 92.24 169.25 93.33C168.71 94.32 167.48 94.87 167.05 95.92C167.75 95.17 168.85 94.53 169.44 93.93C171.77 92.06 174.12 90.22 176.55 88.48C188.12 80.57 200.98 74.66 213.79 69.06C223.54 65.44 233.21 61.06 243.42 59.07ZM241.55 78.98C244.62 74.11 249.61 68.25 246.41 62.3C246.29 62.03 246.16 61.77 246.02 61.53C245.84 61.66 245.6 61.76 245.32 61.8C234.93 63.61 225.2 68.08 215.35 71.7C203.41 76.82 191.59 82.39 180.62 89.38C177.66 91.34 174.74 93.54 171.97 95.8C174.65 95.05 176.99 94.54 176 98.73C176.21 98.82 176.38 98.93 176.52 99.05C178.83 100.09 181.16 101.13 183.32 102.47C193.46 108.62 197.08 120.74 200.86 131.28C201.02 131.79 201.18 132.3 201.33 132.82C201.4 132.77 201.47 132.71 201.54 132.67C212 122.53 219.2 109.87 227.89 98.29C232.41 91.91 237.09 85.38 241.55 78.98ZM261.68 131.64C258.65 129.32 254.82 127.81 251.66 126.2C243.89 122.4 235.56 120.41 227.03 119.58C223.89 119.1 220.74 118.68 217.58 118.39C217.53 118.39 217.49 118.38 217.44 118.37C213.2 124.23 208.9 129.8 205.67 132.98C213.49 132.01 221.35 131.32 229.24 131.14C233.02 131.48 252.59 129.71 261.68 131.64ZM264.73 135.9C264.2 135.82 263.64 135.55 263.22 135.31C256.15 133.1 248.53 133.86 241.22 133.97C228.22 134.03 215.22 134.67 202.35 136.42C203.44 140.41 204.29 144.48 204.38 148.6C204.36 148.96 204.33 149.31 204.3 149.66C207.34 151.45 210.24 153.47 213.06 155.59C213.86 155.17 215.1 155.13 215.9 154.88C227.59 151.7 238.77 146.97 250.29 143.27C253.96 142.01 257.45 140.71 260.83 138.91C262.16 138.06 263.83 137.23 264.73 135.9ZM262.42 128.53C280.97 139.98 248.1 146.4 240.2 149.95C232.9 152.5 225.67 155.33 218.22 157.4C217.65 157.46 216.92 157.72 216.15 157.95C223.23 163.37 229.58 169.63 235.92 175.88C240.38 180.09 244.96 184.21 248.97 188.88C255.36 195.24 248.41 197.56 242.56 198.6C233.95 200.24 225.21 201.87 216.42 201.38C211.74 201.09 207.15 200.24 202.63 199.09C205.81 204.71 207.87 211.1 208.64 217.45C209.83 224.42 211.85 250.46 201.37 250.28C193.26 248.05 186.19 243.13 179.39 238.33C174.71 234.81 170.17 231.05 166.12 226.8C166.11 227.21 166.1 227.62 166.09 228.02C166.13 235.69 161.36 253.99 151.69 253.54C142.1 249.4 128.51 229.99 124.36 220.27C124.16 219.69 123.72 218.76 123.29 217.72C119.62 226.75 116.43 236.04 111.03 244.18C104.12 253.64 92.8498 263.38 80.5598 263.29C64.3498 262.75 68.7598 225.72 69.0798 214.52C69.5698 204.39 70.7698 194.3 72.7598 184.36C72.3798 184.61 71.9998 184.86 71.6198 185.11C60.7298 192 47.7698 195.75 34.8598 194.82C28.5998 194.47 22.3798 193.7 16.1598 192.99C12.2498 192.35 7.63977 192.36 4.55977 189.58C-0.620228 180.89 15.3398 169.75 21.1098 164.95C28.7698 158.13 36.4798 151.56 43.9398 144.57C44.6798 144.1 45.4598 143.09 46.2898 142.36C43.5698 141.21 40.8998 139.94 38.1798 138.8C26.7598 134.19 15.6598 128.64 6.37977 120.42C-3.47023 112.92 5.29977 108.44 13.1998 105.88C24.9398 102.27 36.7398 99.07 48.8198 97.07C50.1098 97 53.2398 95.82 55.3898 95.78C45.8898 79.62 38.9498 61.84 34.9498 43.63C33.6098 35.04 33.6398 27.24 44.8398 28.99C53.8598 30.59 62.9998 32.55 71.4098 36.3C79.4598 39.55 86.1598 43.07 92.0698 47.34C89.9698 36.96 89.1298 26.27 89.7398 15.71C89.5998 10.46 92.8298 6.81002 98.1598 6.70002C106.14 6.24002 112.42 12.25 118.61 16.43C129.96 24.11 138.84 34.57 146.06 46.13C146.51 44.74 147.01 43.33 147.44 42.12C150.3 33.5 153.4 24.86 158.39 17.21C159.87 14.17 162.89 12.47 166.2 13.71C175.46 16.86 177.58 27.81 179.49 36.23C181.95 46.16 183.99 56.19 184.95 66.39C189.91 63.84 195.11 61.75 200.52 60.27C209.41 57.18 218.75 56 228.08 55.15C233.77 54.78 240.12 53.65 245.33 56.54C249.13 59.04 251.13 63.99 250.36 68.45C249.41 73.15 246.4 77.08 243.85 81.02C240.26 86.19 236.57 91.28 232.96 96.44C231.34 98.28 225.71 106.8 219.57 115.43C220.96 115.61 222.43 116 223.28 115.95C229.14 116.96 235.15 117.24 240.89 118.85C248.36 121.23 255.8 124.22 262.42 128.53Z" fill="#856FF9"/>
<path d="M168.43 141.65C169.67 141.65 170.66 140.45 170.59 139.26C170.53 137.97 169.44 137.09 168.2 137.09C166.96 137.09 165.97 138.29 166.04 139.48C166.11 140.77 167.19 141.65 168.43 141.65ZM189.47 147.4C189.63 141.33 184.4 135.93 178.64 134.76C180.65 136.74 182.01 139.24 182.72 141.97C183.65 145.25 183.35 148.92 181.61 151.89C183.57 151.23 185.59 150.56 187.47 149.75C188.58 149.44 189.42 148.58 189.47 147.4ZM195.04 159.05C196.14 156.63 196.31 153.12 193.82 151.52C193.07 151.16 192.25 150.91 191.42 150.83C191.34 150.82 191.26 150.81 191.18 150.79C187.88 153.83 178.98 156.09 171.97 157.19C176.29 161.19 181.82 163.56 187.53 164.46C191.2 165.26 193.87 162.18 195.04 159.05ZM192.46 147.91C203.78 149.84 198.32 167.7 188.57 167.7C187.77 167.7 186.94 167.58 186.09 167.32C181.67 166.52 177.39 164.84 173.64 162.37C172.68 161.64 169.48 159.52 168.24 157.71C166.95 157.85 165.82 157.92 164.9 157.94C162.48 157.79 160.36 156.44 158.78 154.67C149.89 144.3 165.46 128.73 176.77 131.32C182.7 131.91 188.23 135.31 190.87 140.74C192.03 142.89 192.84 145.49 192.46 147.91Z" fill="#856FF9"/>
<path d="M135.94 159.88C135.91 159.8 135.89 159.72 135.88 159.63C135.4 154.74 131.96 153.95 128.59 157.13C128.43 157.26 128.31 157.42 128.21 157.59C128.53 157.76 128.83 157.91 129.12 158.05C129.17 158.07 129.21 158.09 129.26 158.11L129.28 158.12C130.16 158.5 131.07 158.81 131.79 159.03C132.96 159.37 134.16 159.62 135.33 159.81C135.38 159.82 135.43 159.83 135.47 159.83C135.49 159.83 135.51 159.83 135.51 159.83C135.66 159.85 135.79 159.87 135.94 159.88ZM149.54 158.09C149.77 157.96 149.99 157.82 150.2 157.68C149.81 157.42 149.49 157 149.25 156.57C148.52 155.69 147.6 154.7 146.37 154.73C143.64 154.73 142.57 157.64 142.58 159.99C142.78 159.97 142.97 159.95 143.17 159.93H143.18H143.2C144.13 159.81 145.06 159.65 145.97 159.43C146.67 159.26 147.35 159.05 148.02 158.79C148.54 158.59 149.05 158.36 149.54 158.09ZM152.12 155.01C152.12 154.9 152.11 154.79 152.1 154.69C152.08 154.59 152.06 154.49 152.04 154.39C152.01 154.28 151.97 154.16 151.93 154.05C151.88 153.93 151.82 153.82 151.77 153.7C151.69 153.56 151.6 153.42 151.51 153.28C151.36 153.07 151.19 152.87 151.01 152.68C150.74 152.41 150.46 152.16 150.32 152.04C149.96 151.75 149.59 151.49 149.2 151.24C148.58 150.86 147.93 150.53 147.27 150.24C146.44 149.88 145.59 149.58 144.72 149.32C143.54 148.98 142.34 148.73 141.17 148.54C141.13 148.54 141.1 148.53 141.06 148.52C141.03 148.52 141 148.51 141 148.51C139.71 148.33 138.42 148.23 137.16 148.21C135.93 148.19 134.7 148.25 133.53 148.37C133.48 148.38 133.42 148.39 133.37 148.39C133.37 148.39 133.36 148.39 133.35 148.39C132.4 148.51 131.47 148.68 130.55 148.9C129.83 149.09 129.11 149.31 128.41 149.58C127.93 149.78 127.47 149.99 127.02 150.24C126.7 150.42 126.39 150.62 126.09 150.83C125.88 150.99 125.67 151.17 125.47 151.35C125.33 151.49 125.18 151.65 125.05 151.81C124.97 151.92 124.89 152.02 124.82 152.13C124.75 152.26 124.68 152.39 124.61 152.52C124.57 152.62 124.53 152.73 124.5 152.83C124.48 152.92 124.46 153.02 124.44 153.11L124.42 153.21C124.42 153.25 124.42 153.3 124.42 153.34C124.42 153.43 124.42 153.51 124.43 153.6C124.45 153.72 124.47 153.83 124.49 153.95C124.52 154.06 124.56 154.17 124.6 154.28C124.65 154.4 124.71 154.51 124.76 154.63C124.84 154.77 124.92 154.9 125.01 155.03C125.16 155.24 125.33 155.44 125.51 155.64C125.56 155.69 125.62 155.75 125.67 155.8C126.49 154.64 127.93 153.67 128.95 153.12C131.4 151.86 134.81 151.61 136.69 153.94C137.67 155.03 139.5 158.43 138.72 160.09C138.92 160.1 139.11 160.1 139.29 160.11C139.37 160.11 139.44 160.11 139.52 160.11C139.32 158.22 140.21 156.12 141.04 154.52C142.53 152.04 146.04 151 148.67 152.17C149.6 152.63 151.34 153.92 152.1 155.24C152.11 155.18 152.11 155.09 152.12 155.01ZM154.19 151.83C155.12 153.24 155.4 154.95 154.89 156.57C154.4 158.13 153.16 159.36 151.82 160.25C150.23 161.31 148.4 161.95 146.55 162.41C144.89 162.83 143.17 163.04 141.46 163.12C140.89 163.15 140.31 163.16 139.73 163.16C138.63 163.16 137.53 163.11 136.43 162.98C136.24 162.96 136.05 162.94 135.87 162.91C135.22 162.84 134.57 162.73 133.91 162.62C132.45 162.36 131 161.98 129.59 161.48C127.67 160.8 125.79 159.89 124.22 158.58C122.7 157.33 121.45 155.6 121.37 153.56C121.3 151.69 122.32 150.03 123.69 148.84C124.95 147.74 126.49 147.01 128.05 146.46C129.98 145.79 132 145.44 134.02 145.26C136.45 145.05 138.91 145.13 141.32 145.48C143.82 145.84 146.27 146.46 148.57 147.48C150.75 148.46 152.89 149.82 154.19 151.83Z" fill="#856FF9"/>
<path d="M143.3 172.07C142.57 171.66 141.84 171.25 141.12 170.85C137.88 169.71 134.67 170.56 131.65 171.85C133.14 172.35 134.72 172.64 136.16 172.78C138.5 173.05 141.1 172.95 143.3 172.07ZM158.97 173.75C159.33 175.66 157.01 175.84 155.65 175.87C152.26 176.16 149.18 175.09 146.24 173.63C145.16 175.69 139.27 176.01 137.54 175.92C134.27 175.69 130.9 175.18 128.01 173.56C127.87 173.63 127.72 173.7 127.57 173.77C123.79 175.43 119.62 176.06 115.52 175.92C114.04 175.73 111.76 175.79 111.14 174.15C110.82 172.96 112.15 171.92 113.21 172.39C126.68 176.04 133.93 160.72 147.16 170.78C150.22 172.36 153.76 173.36 157.14 172.62C157.93 172.4 158.78 172.96 158.97 173.75Z" fill="#856FF9"/>
<path d="M97.7398 126.11C97.9798 125.91 98.3298 125.7 98.7698 125.48C96.1798 125.55 93.6098 126.14 91.2898 127.23C87.5898 129.05 83.3798 130.93 81.3998 134.76C80.6998 136.17 80.0998 137.64 80.5798 139.14C81.5598 140.77 83.3998 141.9 85.0398 142.57C86.9598 143.02 88.8298 143.62 90.6898 144.28C90.0198 141.58 90.0998 138.65 90.4598 135.94C91.1998 131.75 94.4998 128.59 97.7398 126.11ZM99.6798 155.02C101.27 154.14 102.71 153.3 104.13 152.43C97.1598 150.36 90.5798 147.13 83.5398 145.24C83.0098 145.03 82.5198 144.79 82.0598 144.55C82.0498 144.55 82.0498 144.55 82.0498 144.54C82.0098 144.54 81.9598 144.52 81.9198 144.51C80.3998 144.06 78.9198 143.86 77.5198 143.86C70.8698 143.86 65.8298 148.39 64.7298 152.91C63.4398 158.22 67.5898 163.53 80.9398 161.52C87.5698 160.55 93.9198 158.28 99.6798 155.02ZM108.21 135.69C109.46 135.69 110.48 134.62 110.47 133.39C110.46 132.14 109.42 131.13 108.17 131.13C106.92 131.13 105.9 132.2 105.91 133.43C105.92 134.68 106.97 135.69 108.21 135.69ZM114.49 128.37C118.29 132.54 120.67 138.35 120.7 143.99C120.45 150.25 115.19 155.2 108.83 153.61C108.51 153.55 108.18 153.47 107.85 153.4C107.08 154.75 104.33 155.54 103.28 156.45C95.2698 161.09 85.8598 164.93 76.4498 164.93C74.1298 164.93 71.8098 164.7 69.5098 164.18C53.9898 159.59 63.4598 141.49 75.9698 140.82C76.4398 140.8 77.2298 140.77 78.1298 140.78C76.3298 137.21 78.0398 132.74 82.0198 129.18C91.2298 121.57 105.44 119.34 114.49 128.37Z" fill="#856FF9"/>
</svg>
