<svg width="270" height="270" viewBox="0 0 270 270" fill="none" xmlns="http://www.w3.org/2000/svg">
<path d="M165.26 150.47C165.28 150.48 165.29 150.49 165.31 150.5C165.3 150.5 165.28 150.5 165.27 150.5C165.27 150.49 165.27 150.48 165.26 150.47Z" fill="#3A0190"/>
<path d="M96.9599 137.31C101.69 136.44 106.5 135.99 111.24 135.12C106.21 133.18 100.71 130.44 95.2199 130.44C93.8599 130.44 92.4999 130.61 91.1499 130.99C85.9499 132.61 87.0699 139.47 92.6299 138.92C94.1999 138.76 95.4799 137.76 96.9599 137.31ZM176.56 146.27C177.13 148.37 172.93 148.38 171.58 148.89C170.19 149.21 168.77 149.45 167.35 149.6C166.99 149.61 166.63 149.62 166.27 149.63C165.66 149.64 165.06 149.64 164.45 149.65C164.25 149.65 164.06 149.66 163.86 149.65C163.86 149.65 163.87 149.65 163.87 149.66C163.66 149.66 163.46 149.66 163.25 149.66C163.25 149.66 163.25 149.66 163.24 149.66C163.01 149.66 162.78 149.66 162.55 149.66C162.55 149.66 162.55 149.66 162.54 149.66C162.42 149.66 162.3 149.65 162.18 149.65C162.15 149.65 162.12 149.65 162.09 149.65C161.93 149.65 161.76 149.64 161.6 149.63C161.5 149.62 161.4 149.62 161.3 149.61C161.26 149.61 161.23 149.6 161.19 149.6C161.15 149.6 161.11 149.59 161.08 149.59C160.96 149.58 160.84 149.57 160.72 149.56C160.48 149.54 160.24 149.52 160.01 149.5C160.01 149.5 160 149.5 159.99 149.5C159.88 149.49 159.76 149.48 159.65 149.46C159.65 149.46 159.65 149.46 159.64 149.46C159.63 149.46 159.62 149.46 159.61 149.46C159.57 149.45 159.53 149.45 159.49 149.44C159.4 149.43 159.32 149.42 159.24 149.4C158.95 149.36 158.65 149.31 158.36 149.25C158.36 149.25 158.36 149.25 158.36 149.24C158.27 149.23 158.18 149.21 158.1 149.19C157.99 149.17 157.89 149.15 157.78 149.13C157.74 149.1 157.69 149.08 157.64 149.08C157.61 149.08 157.58 149.08 157.55 149.09C154.15 147.74 150.35 147.41 146.75 147.17C138.92 147.09 131.2 148.38 123.49 149.69C122.86 149.8 122.23 149.9 121.6 150.01C130.17 153.16 138.97 155.43 147.47 158.81C152.19 160.67 156.79 162.82 161.45 164.81C162.92 165.49 161.92 167.74 160.41 167.09C154.93 164.71 149.5 162.2 143.91 160.11C135.07 156.85 125.89 154.55 117.18 150.95C117.07 150.9 116.97 150.84 116.88 150.77C111.59 151.58 106.29 152.21 100.95 152.21C99.5999 152.21 98.2499 152.17 96.8899 152.08C87.8399 151.58 78.4899 151.09 69.9999 147.68C68.8999 147.41 67.2999 146.67 68.1899 145.31C69.0999 144.16 70.4599 145.36 71.5499 145.58C74.1199 146.62 76.8499 147.41 79.5799 147.83C88.8899 149.33 98.4799 150.1 107.86 149.44C122.84 148.14 137.84 142.93 152.96 145.33C153.83 145.49 156.01 145.89 157.98 146.53C158.11 146.49 158.25 146.47 158.39 146.47C155.88 141.8 151.52 138.01 146.5 136.46C131.39 132.4 116.01 137.54 100.93 139.21C97.6299 139.14 95.3199 141.37 92.1899 141.44C89.0399 141.62 86.3899 139.6 85.5499 136.9C81.9599 135.31 78.7199 132.96 75.6499 130.53C74.4399 129.44 76.0799 127.6 77.3199 128.67C79.4599 130.42 81.7999 132.01 84.0899 133.36C84.3999 133.65 84.8699 133.85 85.3599 134.06C85.4299 133.65 85.5399 133.23 85.6999 132.82C91.3599 122.3 107.91 131.33 115.99 134.37C130.42 132.19 149.27 129.01 159.02 142.73C159.97 144.06 160.88 145.48 161.42 147.02C163.2 147.27 165.03 147.38 166.72 147.16C169.66 146.83 172.29 146.27 175.02 145.45C175.65 145.24 176.36 145.61 176.56 146.27Z" fill="#856EFC"/>
<path d="M176.78 96.2C182.24 89.32 166.56 92.63 163.73 93.29C159.26 94.16 154.77 95.04 150.22 95.42C140.57 96.52 131.03 94.88 121.55 93.23C115.82 92.47 110.08 91.72 104.34 90.97C101.46 90.65 98.4297 90.22 95.6297 91.03C88.1997 92.82 91.7197 100.4 96.5497 103.08C101.89 106.19 108.23 106.38 114.22 106.96C124.18 108.12 134.2 108.72 144.21 109.29C151.12 109.61 158.08 110.04 164.94 109.05C170.64 108.4 178.32 107.21 176.17 99.62C170.11 102.11 163.33 102.09 156.87 102.33C148.92 102.76 140.71 102.09 132.81 101.99C120.8 102.47 109.93 102.25 98.7197 97.29C97.2597 96.82 97.7997 94.58 99.3497 94.87C101.97 95.77 104.53 96.91 107.21 97.64C117.07 100.62 127.05 99.26 137.09 99.59C145.69 99.77 170.81 101.34 176.78 96.2ZM176.98 89.79C181.12 90.99 181.43 95.65 178.28 98.22C179.59 101.24 179.12 105.11 176.87 107.56C172.54 111.92 161.44 111.9 155.42 112.18C142.92 111.9 130.4 111.09 117.95 109.86C108.24 108.59 95.4097 109.47 89.8997 99.65C86.1697 92.74 92.1697 87.94 98.8797 88.04C106.83 88.42 114.7 89.92 122.59 90.84C132.59 92.68 142.61 94.11 152.72 92.62C157.16 92.05 161.53 91.12 165.93 90.3C169.56 89.66 173.36 88.83 176.98 89.79Z" fill="#856EFC"/>
<path d="M136.92 85.75C137.45 83.55 137.79 81.15 137.34 78.91C137 78.14 136.45 77.46 135.65 76.92C133.7 75.74 131.31 75.74 129.17 75.07C124.01 73.64 118.96 71.11 113.61 71.11C112.57 71.11 111.52 71.2 110.46 71.42C103.16 72.78 98.9599 81.99 107.2 85.48C107.85 85.7 108.5 85.88 109.15 86.02C108.37 83.7 108.73 80.92 109.9 78.84C111.01 77.04 112.88 75.88 114.81 75.14C120.81 73.12 132.77 74.62 131.27 83.25C131.04 84.18 130.87 86.2 130.18 87.3C130.95 87.35 131.72 87.41 132.48 87.47C133.95 87.64 135.05 87.49 136.41 87.09C136.59 86.64 136.84 86.17 136.92 85.75ZM167.63 85.84C171.9 82.29 168.49 74.09 162.93 74.61C158.02 74.72 153.38 76.09 148.5 76.43C146.38 76.63 144.22 76.32 142.13 76.75C141.2 76.87 140.57 77.93 139.8 78.18C139.82 78.27 139.85 78.36 139.86 78.45C139.86 78.46 139.86 78.46 139.86 78.47C140.75 81.08 140.22 84.07 139.36 86.67C139.32 86.72 139.29 86.78 139.25 86.83C139.25 86.83 139.25 86.83 139.25 86.84C139.08 87.42 138.87 87.95 138.61 88.36C140.33 89.11 142.14 89.44 143.99 89.52C142.54 85.1 143.94 79.83 148.46 77.83C152.29 76.02 157.35 75.7 161.03 78.03C163.16 79.61 164.33 82.32 164.24 84.95C164.17 85.54 164.23 86.39 164.09 87.09C165.34 86.81 166.53 86.42 167.63 85.84ZM168.82 65.81C170.1 66.42 173.22 67.19 172.37 69.06C172.04 69.63 171.23 69.88 170.66 69.51C169.09 68.43 167.25 67.78 165.39 67.69C161.14 67.39 157.13 68.73 153.05 69.64C149.07 70.52 144.99 71.13 140.91 71.01C141.16 71.96 141.11 73.31 140.84 74.58C143.7 73.47 147.38 74.35 150.3 73.74C153.84 73.28 157.35 72.53 160.91 72.2C163.37 71.94 166.05 72.15 168.15 73.57C172.42 76.71 173.71 84.22 169.25 87.75C165.35 90.2 160.39 89.97 155.97 90.79C151.65 91.39 147.3 92.18 142.92 91.96C140.54 91.7 137.89 91.19 135.94 89.71C135.89 89.73 135.84 89.76 135.79 89.78C135.65 89.83 135.51 89.89 135.37 89.92C135.37 89.92 135.37 89.92 135.36 89.92H135.35C135.32 89.92 135.3 89.93 135.26 89.94C134.9 89.94 134.54 89.95 134.18 89.95C131.22 89.95 128.24 89.75 125.27 89.56C122.2 89.36 119.12 89.15 116.05 89.17C111.53 88.99 106.34 88.97 102.85 85.67C97.0099 79.83 101.52 71.6 108.45 69.37C114.35 67.55 120.57 69.36 126.12 71.53C129.85 73.17 134.79 72.86 137.89 75.54C138.52 74.21 138.69 72.64 138.4 71.21C138.37 71.1 138.36 70.98 138.38 70.87C127.65 70.03 115.43 60.54 105.34 67.4C104.78 68.38 103.17 68.04 103.04 66.91C103.08 64.93 106.52 63.69 108.14 63.16C118.63 60.31 128.28 67.14 138.46 68.34C138.69 67.84 139.03 67.36 139.27 66.87C143.43 60.27 143.34 53.32 141.13 46.07C140.96 45.41 141.48 44.73 142.12 44.61C142.82 44.47 143.41 44.94 143.58 45.59C146.19 54.26 145.67 60.91 141.29 68.54C144.66 68.59 148.11 68.13 151.32 67.48C157.04 66.28 163 64 168.82 65.81Z" fill="#856EFC"/>
<path d="M87.3899 82.38C87.5999 83 87.2499 83.77 86.5999 83.96C79.2999 86.14 81.2699 93.24 78.5199 92.8C76.4599 92.14 78.2599 89.48 78.5999 88.12C79.4799 85.91 81.0799 84.02 83.1299 82.81C84.3099 82.2 86.5599 80.57 87.3899 82.38Z" fill="#856EFC"/>
<path d="M218.32 196.12C228.49 174.47 222.38 149.17 214.04 127.96C211.56 122.12 208.62 116.51 206.08 110.69C202.54 102.64 200.29 94.06 199.02 85.36C197.45 74.72 198.06 63.64 194.34 53.44C190.41 42.43 182.54 32.77 172.07 27.51C163.82 23.75 154.83 22.62 145.93 21.86C118.02 19.37 94.3099 34.67 78.9099 57C71.6799 67.74 68.4099 80.52 63.9499 92.52C60.1499 104 56.1299 115.47 49.6499 125.75C43.8499 136.06 35.9699 145.54 32.0699 156.79C28.2399 168.55 28.8499 181.28 30.9599 193.3C35.0799 213.8 51.5499 230.64 71.1999 236.93C72.1399 237.26 73.0599 237.55 73.9699 237.82C77.9099 238.63 81.9599 238.64 86.0099 238.28C86.0299 238.26 86.0499 238.24 86.0599 238.22C86.3199 238.22 86.5799 238.21 86.8499 238.2C87.0699 238.19 87.2799 238.18 87.4999 238.17C87.6799 238.16 87.8599 238.15 88.0499 238.14C88.2699 238.12 88.4899 238.11 88.7099 238.09C88.8399 238.08 88.9799 238.07 89.1099 238.06C89.2399 238.05 89.3799 238.04 89.5099 238.02C89.6199 238.01 89.7399 238 89.8499 237.99C90.0999 237.97 90.3399 237.94 90.5899 237.92C90.7699 237.9 90.9599 237.89 91.1399 237.87C91.9599 237.8 92.7899 237.71 93.6099 237.6C94.7899 237.45 95.9699 237.25 97.1399 237.01C98.8699 236.9 100.59 236.76 102.3 236.53C108.4 235.78 114.4 234.46 120.46 233.51C137.52 230.97 154.85 229.85 171.82 226.79C190.22 222.68 209.21 213.3 218.32 196.12ZM223.84 151.23C227.55 168.2 227.64 187.65 217.41 202.45C207.04 217 189.92 225.23 172.87 229.13C155.58 232.36 137.95 233.4 120.57 236.03C114.51 237.01 108.5 238.3 102.39 239.05C99.5899 239.39 96.7699 239.54 93.9699 239.72C89.7199 240.36 85.4699 241.07 81.1699 241.07C81.0299 241.07 80.8899 241.07 80.7499 241.07C80.3899 241.04 80.0199 241.01 79.6599 240.98C79.4599 240.96 79.2699 240.94 79.0699 240.93C78.8799 240.91 78.6799 240.9 78.4899 240.88C78.4899 240.88 78.4899 240.88 78.4799 240.88C78.4699 240.88 78.4799 240.88 78.4699 240.88C78.4599 240.88 78.4499 240.88 78.4399 240.88C77.7999 240.82 77.1499 240.74 76.4999 240.67C75.5099 240.55 74.5199 240.42 73.5399 240.26C73.4499 240.24 73.3599 240.23 73.2699 240.21C73.2399 240.21 73.2099 240.2 73.1799 240.19C73.1799 240.19 73.1699 240.19 73.1599 240.19C71.2999 239.76 69.4799 239.19 67.7099 238.48C67.3699 238.39 67.0099 238.25 66.7199 238.05C53.1399 232.69 41.4599 222.55 34.3799 209.74C26.4699 195.58 25.5799 178.32 27.9299 162.55C30.1299 150.46 37.6199 140.43 43.9999 130.24C46.7599 125.72 49.6599 120.92 52.0599 116.29C56.0199 108.46 58.6699 100.12 61.5099 91.87C65.8699 80.12 69.0899 67.71 75.8699 57.06C85.1899 42.79 98.5299 30.88 114.22 24.07C126.01 19.27 139.09 18.31 151.64 19.92C159.37 20.88 167.29 22.24 174.26 25.87C184.76 31.51 192.66 41.38 196.65 52.54C201.11 64.75 199.69 78.29 202.48 90.81C204.69 103.6 210.9 114.97 216.18 126.66C219.54 134.56 222.03 142.83 223.84 151.23Z" fill="#856EFC"/>
<path d="M234.45 169.45C237.55 166.41 231.69 164.59 231.48 161.63C230.53 157.97 236.4 154.53 233.5 151.48C231.69 149.62 228.36 149.01 228.04 145.99C227.66 144.04 228.29 142.08 229.14 140.35C230.1 138.75 230.33 136.58 228.68 135.36C225.58 133.81 223.74 130.41 225.64 127.19C226.18 126.23 226.89 125.37 227.61 124.55C228.21 123.87 229.08 122.89 228.57 121.94C226.7 119.45 222.6 119.35 221.58 115.99C220.72 113.6 222.23 111.22 223.34 109.19C223.77 108.24 224.88 107.12 224.16 106.09C222.93 104.83 221.05 104.77 219.73 103.64C217.93 102.08 217.87 99.27 218.99 97.3C219.94 95.19 222.27 93.14 221.45 90.64C219.52 85.98 213.83 86.25 214.31 79.58C214.61 77.28 216.04 75.3 216.33 73C216.4 72.25 216.03 71.55 215.55 71C212.16 67.92 210.31 66.22 211.77 61.35C211.21 58.64 207.5 58.3 206.11 56.12C204.91 54.39 205.41 52.08 206.34 50.36C206.52 49.76 207.2 48.97 206.72 48.41C202.98 46.64 198.36 47.29 200.07 41.22C200.34 40.26 200.83 39.33 200.91 38.33C200.91 38.2 200.77 38.13 200.68 38.05C199.62 37.4 198.36 37.41 197.21 37C192.98 35.8 192.87 32.62 193.48 28.91C188.53 28.46 185.05 27.49 184.75 21.84C184.55 20.48 184.43 19.33 182.73 19.68C178.67 20.56 173.57 20.21 171.32 16.18C170.59 15.07 170.41 13.66 169.56 12.65C169.22 12.37 168.7 12.56 168.3 12.6C165.64 13.26 162.85 14.81 160.06 13.78C158.31 13.04 157.34 11.29 156.18 9.89C155.39 8.95 154.56 8.68 153.44 9.15C150.23 10.13 147.84 13.69 144.2 13.1C141.22 12.65 139.89 9.65 137.86 7.87C134.54 6.75 133.01 13.59 129.5 13.91C123.66 15.5 121.36 5.73 118.41 9.56C116.71 11.61 115.75 14.79 112.72 15.17C110.28 15.73 108.6 13.55 106.48 12.95C105.52 13.21 105.09 14.49 104.59 15.29C102.19 21.41 99.9699 21.84 94.2599 19.16C90.2099 19.55 93.3799 29.22 84.8799 29.8C83.5299 29.93 82.0899 29.37 80.7899 29.76C79.0599 31.84 80.5899 34.87 79.6799 37.25C79.1399 39.19 77.1599 40.33 75.1999 40.12C74.0099 40.13 72.7199 39.41 71.6099 40.05C69.7199 42.25 70.4299 45.53 69.8599 48.19C69.5399 50.53 68.4499 52.78 66.6399 54.32C65.3099 55.53 63.0399 55.97 62.7199 58C62.2899 60.15 62.6899 62.41 61.9499 64.5C61.1599 67.25 58.0999 67.76 56.0999 69.25C54.6599 71.54 56.6799 74.38 55.9199 76.87C55.2499 79.62 52.0999 80.38 49.6199 80.43C50.9499 83.8 51.5499 87.98 48.6099 90.72C47.6099 91.93 45.3399 92.52 45.6199 94.42C47.0099 101.97 44.5199 104.96 40.3199 110.67C39.8399 111.92 40.1399 113.35 40.0299 114.65C39.5799 116.53 37.4899 119.47 35.3699 118.11C30.5699 119.6 39.1399 128.33 31.9999 132C28.8799 133.23 26.4899 133.48 27.4299 137.62C31.3899 149.19 28.5699 151.8 17.2299 154.35C17.8899 157.81 20.7899 160.4 21.5599 163.88C22.9199 167.54 21.1299 171.01 19.5499 174.22C18.9299 175.83 19.5099 177.36 20.1799 178.83C22.5599 183.03 24.6199 187.66 24.1799 192.6C23.9899 195.55 22.5999 198.86 24.5799 201.49C27.3699 205.01 30.3299 208.61 30.5799 213.32C30.8599 215.02 30.4799 216.8 30.9899 218.46C31.3099 218.96 32.0199 218.98 32.5099 219.27C35.7599 220.9 38.7699 223.43 40.1899 226.85C41.5999 230.43 41.5699 234.46 43.2099 237.96C44.3899 240.41 46.2299 239.17 48.0599 238.36C51.2899 237.22 55.1299 237.15 58.0299 239.15C61.8999 241.46 62.0699 246.89 65.7299 249.32C67.8699 250.53 70.1199 248.87 71.6499 247.43C73.1199 246.22 74.6799 245.1 76.4399 244.36C80.5499 242.24 85.2199 244.4 87.9699 247.7C89.5099 249.24 90.7199 251.72 93.2399 251.48C96.3299 251.4 98.2599 248.58 100.53 246.88C103.24 244.51 107.26 243.07 110.61 244.93C112.79 245.88 114.44 248.33 116.97 247.97C122.34 246.93 124.63 239.97 130.36 240.14C134.63 240.28 137.35 243.97 140.71 246.07C143.01 247.04 145.41 245.26 147.16 243.9C152.44 238.68 156.37 236.25 163.25 240.6C164.76 241.36 166.19 242.32 167.91 241.97C171.56 240.68 173.31 236.58 176.63 234.68C178.77 233.29 181.39 232.59 183.92 233.01C186.81 233.16 189.81 235.46 192.6 233.8C195.39 231.54 197.1 228.27 199.14 225.39C201.18 222.21 205.06 220.99 208.63 220.56C210.02 220.32 211.59 220.58 212.82 219.79C214.98 218.2 215.6 215.39 217.24 213.37C218.69 211.49 220.38 209.73 222.4 208.49C224.1 207.47 226.06 207.09 227.86 206.33C231.91 202.06 225.1 193.46 231.22 188.85C236.51 185.66 234.35 181.62 231.9 177.29C230.25 174.35 232.6 171.55 234.45 169.45ZM236.85 164.75C239.44 168.3 236.6 170.68 234.46 173.46C232.87 175.34 234.94 177.34 235.69 179.1C237.21 181.94 237.66 185.72 235.55 188.39C234.16 190.1 231.52 190.97 231.16 193.37C230.36 198.46 234.46 206.6 227.83 208.99C225.88 209.64 223.7 210.26 222.19 211.68C220.91 212.81 219.73 214.07 218.76 215.5C217.1 218.19 215.82 221.83 212.38 222.63C210.67 222.93 208.92 222.91 207.22 223.28C197.73 224.41 198.27 240.39 186.81 236.19C174.13 231.15 173.9 249.79 162.45 242.97C152.2 235.9 150.79 248.69 141.65 248.84C138 248.41 135.86 244.82 132.72 243.26C127.32 240.42 124.56 247.69 120.18 249.36C113.31 253.48 111.37 245.15 105.62 246.79C100.74 248.34 98.1199 254.59 92.4399 253.92C88.8199 253.76 87.2399 250.05 84.7599 247.97C80.0999 243.57 75.2499 247.52 71.4399 250.82C68.1999 253.27 63.6799 252.25 61.6699 248.71C60.0399 246.35 59.4299 243.68 57.3599 241.74C54.3299 238.99 49.8399 240.03 46.5999 241.71C37.6399 243.3 40.7599 229.35 36.2199 225.09C34.9499 223.71 33.4299 222.55 31.7999 221.68C31.2399 221.41 30.6399 221.23 30.0899 220.94C28.6999 220.21 28.2699 218.53 28.2499 217.06C28.2099 215.53 28.2299 213.63 27.8899 212.2C27.2399 206.25 19.8399 202.97 21.1299 196.58C22.1299 191.92 21.8599 186.97 19.4699 182.79C18.4799 180.87 17.2999 179 16.9099 176.85C16.1799 170.59 22.2999 169.52 17.9999 161.65C16.7799 159 12.6699 154.57 16.0099 152.15C18.6499 151.08 21.4399 151.04 23.9699 149.66C28.5899 147.54 26.0799 142.25 25.1299 138.66C23.8499 132.52 26.1899 131.49 31.3399 129.52C33.4799 127.93 32.1499 124.91 31.7199 122.82C30.2499 117.49 32.6499 116.2 37.2599 114.79C37.6499 113.58 37.5699 112.3 37.6399 111.05C38.0199 108.51 40.2299 106.77 41.5599 104.69C42.6999 103.05 43.3599 101.21 43.4899 99.26C43.7299 96.35 41.9699 92.71 44.7899 90.6C45.7199 89.81 46.8299 89.19 47.4999 88.14C49.2099 85.82 47.7099 83.08 47.1499 80.66C46.8799 78.77 48.1199 77.81 49.9599 77.87C55.6599 77.78 52.8299 73.88 53.1199 70.32C53.1999 67.78 55.4899 66.32 57.5999 65.54C62.1799 63.54 57.9799 56.96 62.4399 54.07C64.6199 52.83 66.8199 51.22 67.2499 48.58C67.9399 44.37 67.2799 36.31 73.6799 37.35C81.0399 39.29 74.4899 29.9 79.9799 27.36C82.2999 26.51 85.0399 28.11 87.1699 26.45C88.7699 25.37 88.9599 23.27 89.4399 21.56C90.0199 18.86 92.2899 15.54 95.4199 16.85C97.1399 17.35 99.5999 19.45 100.91 17.18C102.45 14.58 103.52 9.58 107.46 10.55C109.44 10.98 111.24 13.77 113.38 12.25C115.16 10.47 115.86 7.79 118.17 6.53C122.91 4.03 124.56 11.87 128.86 11.47C131.64 10.48 132.43 6.74 135.26 5.59C139.29 3.64 140.9 8.12 143.48 10.13C146.21 11.89 148.58 8.39 150.97 7.48C153.34 6.12 156.31 5.82 158.11 8.27C159.1 9.35 159.79 11 161.26 11.52C164.83 12.16 169.47 7.61 172.03 11.74C173.04 13.93 173.81 16.5 176.43 17.22C179.6 18.62 183.8 15.47 186.29 18.5C187.63 20.38 186.83 23.02 188.25 24.87C189.69 26.32 191.91 26.03 193.75 26.38C198.1 27.4 194.23 31.7 196.43 33.84C197.96 35.08 200.18 34.75 201.82 35.8C205.88 38.11 200.74 42.19 202.71 44.34C204.84 45.49 208.07 45.13 209.22 47.68C209.68 48.73 209.27 49.94 208.84 50.93C206.07 55.52 210.26 55.54 212.8 58.11C216.24 61.23 212.1 63.91 214.74 66.72C215.88 67.96 217.32 68.88 218.18 70.36C220.61 74.27 215.6 78.13 217.14 82.07C218.35 84.85 221.93 85.65 223.22 88.46C226.67 94.32 219.68 97 220.99 101.25C221.83 102.5 223.65 102.5 224.8 103.39C226.24 104.19 227.23 105.86 226.86 107.52C226.37 110.17 222.67 113.07 224.31 115.77C225.48 117.41 227.63 117.68 229.13 118.88C235.63 124.31 225.21 127 227.84 131.5C228.69 132.67 230.24 133.03 231.08 134.23C233.87 137.37 231.55 140.48 230.53 143.75C229.78 146.47 231.89 147.32 233.81 148.48C236.28 149.99 237.74 153.07 236.28 155.79C235.54 157.55 233.96 159.06 233.93 161.05C234.23 162.67 236.03 163.41 236.85 164.75Z" fill="#856EFC"/>
</svg>
