<svg width="270" height="270" viewBox="0 0 270 270" fill="none" xmlns="http://www.w3.org/2000/svg">
<path d="M230.41 225.93C230.37 225.98 230.33 226.04 230.29 226.09C230.33 226.03 230.37 225.98 230.41 225.93Z" fill="#3A0190"/>
<path d="M78.0701 33.2C76.9301 30.75 75.8801 28.27 74.9701 25.72C77.2301 28.15 79.2401 30.76 81.0701 33.47C80.0801 33.33 79.0801 33.24 78.0701 33.2ZM56.3801 107.97C52.3301 104.23 51.5901 97.44 52.2001 90.2C52.2601 89.48 52.3401 88.76 52.4201 88.03C52.4501 87.76 52.4801 87.5 52.5201 87.23C52.5401 87 52.5701 86.77 52.6101 86.54C52.6501 86.23 52.7001 85.92 52.7401 85.61C52.7501 85.55 52.7601 85.49 52.7701 85.43C53.1201 83.15 53.5601 80.88 54.0301 78.71C54.1201 78.32 54.2001 77.93 54.2901 77.54C54.3801 77.15 54.4601 76.77 54.5501 76.4C54.7201 75.64 54.9001 74.9 55.0701 74.18C55.1401 73.89 55.2101 73.61 55.2801 73.32C55.3801 72.91 55.4801 72.5 55.5801 72.11C55.6501 71.81 55.7301 71.5 55.8101 71.21C55.8601 71.01 55.9101 70.81 55.9601 70.61C56.0501 70.24 56.1401 69.88 56.2301 69.52C56.3201 69.18 56.4001 68.84 56.4801 68.52C56.4801 68.51 56.4901 68.49 56.4901 68.48C56.5901 68.05 56.6901 67.64 56.7901 67.25C57.2901 65.63 57.7601 63.98 58.2401 62.33C58.3501 61.97 58.4501 61.6 58.5601 61.24C58.6701 60.84 58.7901 60.44 58.9101 60.04C59.1301 59.29 59.3601 58.53 59.5901 57.78C59.5901 57.77 59.5901 57.76 59.6001 57.76C60.0301 56.33 60.4901 54.91 60.9701 53.5C61.4801 52.02 62.0201 50.56 62.6201 49.12C63.4801 47.05 64.4401 45.02 65.5701 43.09C65.6401 42.96 65.7201 42.83 65.8001 42.7C65.9101 42.52 66.0101 42.34 66.1201 42.17C66.4501 41.64 66.7901 41.11 67.1401 40.6C67.3001 40.44 67.4701 40.28 67.6401 40.14C67.7201 40.07 67.8001 40 67.8801 39.94C67.9401 39.89 68.0101 39.84 68.0701 39.79C70.1801 38.13 72.7801 37.37 75.5701 37.2C75.7601 37.19 75.9401 37.18 76.1301 37.18C76.2301 37.18 76.3401 37.17 76.4401 37.17C76.5601 37.17 76.6901 37.17 76.8201 37.17C77.0801 37.17 77.3401 37.17 77.6101 37.19C77.6201 37.19 77.6401 37.19 77.6501 37.19C77.9201 37.2 78.1901 37.21 78.4601 37.23C78.6701 37.24 78.8801 37.26 79.0801 37.28C79.2201 37.29 79.3701 37.31 79.5101 37.32C79.7101 37.34 79.9101 37.36 80.1101 37.39C81.4001 37.56 82.7001 37.81 83.9701 38.12C84.2101 38.18 84.4501 38.24 84.6901 38.3C84.9301 38.36 85.1701 38.42 85.4001 38.49C85.5401 38.53 85.6801 38.56 85.8101 38.61C85.8601 38.63 85.9201 38.64 85.9701 38.66C86.1001 38.7 86.2301 38.73 86.3601 38.77C86.6501 38.86 86.9301 38.94 87.2001 39.03C87.3101 39.07 87.4101 39.1 87.5201 39.14C87.6901 39.19 87.8601 39.25 88.0301 39.31C88.2001 39.36 88.3701 39.42 88.5301 39.48C88.7001 39.53 88.8601 39.59 89.0301 39.65C89.1901 39.7 89.3401 39.76 89.4901 39.81C90.7901 40.29 92.0201 40.79 93.1301 41.27C99.4401 43.96 100.06 51.53 99.2201 59.26C99.1901 59.55 99.1501 59.85 99.1201 60.14C98.9901 61.26 98.8301 62.37 98.6501 63.47C98.5101 64.33 98.3701 65.18 98.2201 66.01C97.6001 69.51 96.9401 72.74 96.6801 75.19C95.3301 83.4 93.7101 91.55 91.8601 99.61C91.0301 103.09 90.0501 106.51 88.9101 109.82C88.4601 111.2 87.9301 112.71 87.2301 114.07C87.1501 114.22 87.0701 114.37 86.9901 114.53C86.9101 114.68 86.8301 114.83 86.7401 114.97C86.5601 115.27 86.3601 115.57 86.1501 115.85C86.0601 115.97 85.9701 116.08 85.8801 116.2C85.7901 116.32 85.6901 116.42 85.5901 116.53C85.5001 116.63 85.4001 116.73 85.3001 116.82C85.2501 116.87 85.2001 116.92 85.1401 116.97C85.0701 117.04 84.9901 117.11 84.9101 117.17C84.8901 117.19 84.8701 117.21 84.8501 117.22C83.6501 118.21 82.1301 118.74 80.1601 118.45C71.5001 117.35 63.4201 112.76 56.3801 107.97ZM49.2601 82.36C38.1401 72.41 28.1501 61.14 26.6201 49.97C35.6101 57.38 42.4401 67.13 50.6401 75.44C50.1201 77.74 49.6501 80.04 49.2601 82.36ZM51.5401 34.54C49.4801 31.03 45.9601 26.72 46.7501 22.46C50.7101 23.23 58.6801 33.88 62.8701 39.48C62.4401 40.12 62.0501 40.82 61.7201 41.57C61.0301 42.89 60.4001 44.23 59.8101 45.6C56.9401 41.98 54.1501 38.31 51.5401 34.54ZM53.3301 64.84C44.3301 54.61 32.5801 41.62 32.7801 35.38C32.7901 35.37 32.8001 35.37 32.8001 35.36C32.9201 35.32 33.0401 35.29 33.1701 35.27L33.1401 35.32C37.2301 36.63 39.8501 41.05 42.8001 43.98C47.0301 48.73 51.0201 53.75 55.1301 58.66C54.6901 60.09 54.2601 61.52 53.8401 62.95C53.6701 63.58 53.5001 64.21 53.3301 64.84ZM29.1201 46.77C25.5801 44.45 22.0301 47.09 22.6101 51.27C22.8101 53.73 23.7701 56.04 24.7701 58.27C28.8101 66.99 35.1001 74.38 41.9801 80.99C44.1301 83.08 46.3401 85.11 48.6001 87.1C48.1801 90.72 47.9901 94.36 48.1301 98.01C48.7701 107.06 52.8401 111.5 60.7201 115.41C67.5701 119.01 75.1201 123.12 83.1101 122.29C84.9901 122.01 86.5801 121.14 87.9001 119.93C100.57 131.5 112.59 143.75 124.5 156.09C138.46 170.64 152.28 185.38 165.66 200.47C176.65 212.77 195.56 235.84 214.76 249.12C214.76 249.12 214.77 249.11 214.77 249.1C215.63 249.74 216.49 250.38 217.35 251.02C217.79 251.34 218.24 251.54 218.82 251.54C219.91 251.54 220.77 250.48 220.71 249.43C220.67 248.65 220.2 248.05 219.56 247.75C219.58 247.76 219.61 247.76 219.63 247.77C219.71 247.82 219.78 247.86 219.86 247.91C218.79 247.11 217.71 246.31 216.64 245.52C216.37 245.32 216.11 245.13 215.85 244.93C215.73 244.84 215.6 244.77 215.46 244.71C215.46 244.71 215.46 244.71 215.45 244.71C193.85 229.2 172.04 200.79 158.17 186.2C136.17 162.52 114.29 138.52 90.3101 116.81C90.8701 115.85 91.3201 114.83 91.6801 113.8C94.4101 106.86 96.0301 99.59 97.5301 92.3C99.0101 85.29 100.28 78.24 101.37 71.15C104.03 74.91 107.42 77.86 110.74 74.52C113.86 70.2 110.45 63.13 109.6 58.31C108.37 52.53 106.38 46.67 107.56 40.81C109.93 45.63 110.77 51.07 112.35 56.17C116.24 70.23 120.77 84.13 126.54 97.53C138.18 125.65 157.29 149.71 176.95 172.63C190.39 187.93 203.59 203.6 218.74 217.26C221.29 219.51 223.94 221.65 226.7 223.65C226.82 223.79 226.95 223.91 227.1 224.01C228.92 225.25 230.72 226.5 232.54 227.75C232.95 228.04 233.36 228.33 233.9 228.33C234.99 228.33 235.94 227.58 236.01 226.44C236.05 225.7 235.63 224.95 235 224.58C233.7 223.64 232.36 222.75 231.03 221.85C231.03 221.84 231.04 221.84 231.04 221.83C231.02 221.82 231.01 221.81 230.99 221.8C214.22 209.85 201.09 193.6 187.34 178.48C174.02 163.27 160.91 147.79 149.46 131.1C131.36 105.24 121.33 74.99 113.32 44.74C112.23 41.55 111.4 37.22 107.82 36.01C103.54 34.92 103.05 42.06 103.17 44.89C103.62 51.35 105.3 57.64 106.87 63.89C107.25 66.67 108.72 69.27 107.67 71.91C105.43 70.2 103.8 67.91 102.4 65.44C103.72 57.8 104.49 49.7 100.89 42.71C97.6801 37.96 92.0501 36.09 86.5901 34.71C84.1301 30.65 81.3801 26.78 78.1201 23.26C74.3901 18.3 68.8001 19.46 70.9401 26.26C71.7401 28.69 72.6901 31.06 73.7401 33.38C70.7601 33.77 67.9301 34.75 65.6401 36.51C61.0401 30.3 56.2801 24.08 50.1301 19.44C46.5501 17.09 42.3101 19.11 42.5101 23.55C42.6001 26.81 44.0801 29.84 45.6201 32.65C49.3201 38.74 53.6101 44.37 58.0401 49.91C57.5101 51.32 57.0101 52.74 56.5401 54.17C50.6301 47.05 44.9501 39.71 38.1301 33.47C35.6801 31.2 30.7401 30.07 29.0801 33.77C27.9701 36.69 29.3401 39.8 30.6701 42.41C36.5001 52.39 44.5401 60.77 52.0501 69.52C51.9401 69.95 51.8301 70.38 51.7201 70.82C44.1701 62.81 37.5801 53.84 29.1201 46.77Z" fill="#856EFC"/>
<path d="M77.9698 94.94C78.0398 94.3 78.1198 93.66 78.1898 93.02C78.2098 92.82 78.2298 92.61 78.2598 92.41C78.6898 92.63 79.1198 92.86 79.5498 93.08C80.5598 93.6 81.5698 94.12 82.5698 94.64C82.5198 95.08 82.4598 95.52 82.4098 95.96C82.3898 96.17 82.3598 96.37 82.3398 96.58C80.8798 96.03 79.4298 95.48 77.9698 94.94ZM74.0298 94.28C73.9398 95.05 73.7398 95.92 73.8998 96.68C74.0698 97.48 74.7098 97.98 75.4398 98.25C75.6598 98.33 75.8798 98.41 76.0998 98.5C77.5398 99.04 78.9898 99.58 80.4298 100.12C81.1498 100.39 81.8698 100.66 82.5898 100.93C82.8498 101.03 83.1098 101.13 83.3698 101.22C83.5698 101.28 83.7698 101.31 83.9598 101.31C84.9398 101.31 85.8698 100.57 85.9998 99.55C86.1798 98.12 86.3498 96.7 86.5198 95.28C86.5798 94.79 86.6398 94.3 86.6998 93.81C86.7098 93.71 86.7198 93.62 86.7198 93.52C86.7298 93 86.5398 92.49 86.1598 92.1C86.1098 92.04 86.0498 91.99 85.9798 91.94C85.8498 91.83 85.6998 91.73 85.5298 91.66C85.5198 91.65 85.5098 91.65 85.4998 91.64C83.2998 90.49 81.0898 89.36 78.8798 88.22C78.4098 87.98 77.9498 87.7 77.4698 87.49C76.2298 86.96 74.7598 87.74 74.6098 89.11C74.5798 89.41 74.5398 89.7 74.5098 90C74.3498 91.43 74.1798 92.85 74.0298 94.28Z" fill="#856EFC"/>
<path d="M60.8701 88.41C60.7601 88.37 60.6401 88.34 60.5301 88.32C60.7301 87.65 60.9701 86.98 61.1901 86.32C61.9001 86.54 62.6301 86.75 63.3301 87C63.7001 87.15 64.0501 87.33 64.4101 87.5C64.2901 88.3 64.1801 89.09 64.0501 89.89C63.2601 89.53 62.4701 89.14 61.6801 88.77C61.4101 88.63 61.1501 88.5 60.8701 88.41ZM56.3401 89.1C56.2601 89.67 56.2201 90.22 56.5301 90.75C56.8901 91.37 57.4201 91.68 58.0901 91.84C58.2601 91.88 58.4201 91.92 58.5901 91.96C58.8601 92.02 59.1301 92.09 59.4001 92.16C59.4501 92.17 59.5101 92.18 59.5601 92.2H59.5901C59.6101 92.21 59.6301 92.21 59.6501 92.22C60.4201 92.56 61.1701 92.93 61.9301 93.29C62.3801 93.5 62.8201 93.74 63.2901 93.88C63.6801 93.99 64.1001 94.04 64.5001 94.11C64.7501 94.15 64.9901 94.2 65.2301 94.24C65.3501 94.26 65.4701 94.27 65.5901 94.27C66.6101 94.27 67.5001 93.57 67.6601 92.51C67.7501 91.95 67.8401 91.39 67.9301 90.83C68.1401 89.45 68.3701 88.08 68.5801 86.7C68.7401 85.79 68.2301 84.87 67.4101 84.51C66.6001 84.1 65.7701 83.69 64.9401 83.33C64.1601 82.99 63.3001 82.79 62.4901 82.53C61.8801 82.34 61.2601 82.15 60.6501 81.96C59.8301 81.7 58.9401 81.89 58.3701 82.57C58.1301 82.85 58.0201 83.18 57.9101 83.52C57.7001 84.14 57.5001 84.77 57.2901 85.4C57.0201 86.23 56.6801 87.06 56.5101 87.91C56.4201 88.29 56.3901 88.7 56.3401 89.1Z" fill="#856EFC"/>
<path d="M66.9201 72.36C66.8001 72.32 66.69 72.29 66.57 72.25C66.71 71.48 66.86 70.71 66.99 69.93C67.05 69.6 67.1101 69.27 67.1601 68.94C67.3201 69.02 67.4801 69.1 67.6301 69.19C68.4201 69.6 69.2101 70.01 70.0001 70.42C69.9101 71.01 69.8201 71.6 69.7201 72.19C69.6701 72.51 69.6301 72.84 69.5801 73.16C69.3101 73.07 69.0301 72.99 68.7501 72.91C68.1401 72.73 67.5301 72.54 66.9201 72.36ZM62.4701 72.55C62.3801 73.04 62.2701 73.52 62.3601 74.02C62.4801 74.66 62.9201 75.14 63.4701 75.45C63.7001 75.58 63.9701 75.64 64.2201 75.72C64.6001 75.83 64.9701 75.95 65.3401 76.06C66.7301 76.48 68.12 76.9 69.51 77.32C69.8 77.41 70.1 77.5 70.4 77.59C70.64 77.66 70.8901 77.7 71.1301 77.7C71.9001 77.7 72.6301 77.33 73.0001 76.58C73.2801 76.01 73.3 75.26 73.4 74.64C73.62 73.18 73.85 71.73 74.07 70.27C74.1 70.09 74.1301 69.91 74.1601 69.73C74.2501 69.3 74.1801 68.86 74.0001 68.48C73.8201 68.08 73.5201 67.75 73.1101 67.54C73.1001 67.54 73.0901 67.53 73.0901 67.53C72.4201 67.15 71.7301 66.82 71.0501 66.47C69.7801 65.81 68.5101 65.15 67.2501 64.49C66.7001 64.2 66.2201 63.94 65.5501 63.95C64.7201 63.98 64.0801 64.59 63.7801 65.33C63.7201 65.47 63.7001 65.64 63.6701 65.79C63.6001 66.18 63.53 66.57 63.46 66.95C63.19 68.46 62.9301 69.97 62.6601 71.49C62.5901 71.83 62.5301 72.19 62.4701 72.55Z" fill="#856EFC"/>
<path d="M83.5902 77.45C83.6802 76.74 83.7702 76.02 83.8502 75.31C83.8902 75 83.9202 74.68 83.9502 74.37C84.5802 74.64 85.2102 74.91 85.8402 75.18C86.2202 75.34 86.6102 75.52 86.9902 75.69C86.9902 75.74 86.9802 75.8 86.9802 75.86C86.8902 76.74 86.7502 77.62 86.6202 78.49C86.4302 78.44 86.2402 78.38 86.0502 78.33C85.2202 78.03 84.4002 77.74 83.5902 77.45ZM79.5502 77.68C79.5002 78.1 79.4202 78.53 79.4702 78.95C79.5402 79.54 79.8602 80.02 80.3102 80.39C80.5802 80.62 80.9302 80.72 81.2602 80.84C81.5602 80.95 81.8702 81.06 82.1702 81.17C82.7902 81.39 83.4002 81.62 84.0302 81.84C84.7902 82.11 85.5502 82.34 86.3402 82.54C86.6902 82.63 87.0402 82.73 87.3802 82.82C87.6902 82.9 87.9802 82.96 88.2702 82.96C88.5202 82.96 88.7802 82.92 89.0602 82.82C89.7902 82.56 90.2002 81.82 90.3002 81.1C90.3402 80.82 90.3802 80.53 90.4202 80.25C90.5102 79.58 90.6002 78.9 90.7002 78.23C90.8002 77.5 90.9202 76.77 90.9702 76.03C91.0002 75.56 91.0302 75.08 91.0602 74.61C91.0702 74.53 91.0802 74.45 91.0802 74.38C91.1302 73.52 90.5102 72.78 89.8402 72.54C88.9702 72.21 88.1202 71.8 87.2602 71.43C86.4702 71.09 85.6702 70.75 84.8802 70.41C84.5602 70.27 84.2502 70.14 83.9302 70C83.5902 69.86 83.2402 69.67 82.8802 69.58C82.1402 69.38 81.4302 69.61 80.8702 70.12C80.4902 70.47 80.3402 70.98 80.2802 71.48C80.2402 71.8 80.2102 72.12 80.1702 72.44C80.0902 73.15 80.0102 73.86 79.9202 74.57C79.8402 75.28 79.7602 75.98 79.6802 76.69C79.6202 77.01 79.5802 77.35 79.5502 77.68Z" fill="#856EFC"/>
<path d="M87.7902 60.21C87.9002 59.78 88.0202 59.35 88.1302 58.93C88.2702 58.41 88.4102 57.89 88.5402 57.38C89.4002 57.68 90.2602 57.99 91.1202 58.29C91.1202 58.3 91.1202 58.3 91.1202 58.31C91.0302 59.05 90.9502 59.79 90.8602 60.53C90.8402 60.7 90.8202 60.87 90.8102 61.05C90.4802 60.96 90.1502 60.87 89.8202 60.78C89.1502 60.58 88.4702 60.4 87.7902 60.21ZM83.3502 61.51C83.3502 61.79 83.4102 62.06 83.5502 62.34C83.9402 63.11 84.7202 63.52 85.5202 63.73C85.8902 63.83 86.2502 63.93 86.6202 64.03C87.3202 64.22 88.0102 64.41 88.7002 64.6C89.3602 64.78 90.0202 64.96 90.6902 65.14C91.0502 65.24 91.4002 65.34 91.7602 65.44C92.0102 65.51 92.2602 65.54 92.5002 65.54C93.0502 65.54 93.5802 65.36 93.9902 64.92C94.5102 64.36 94.5402 63.63 94.6202 62.93C94.6902 62.34 94.7602 61.75 94.8202 61.16C94.9302 60.26 95.0302 59.36 95.1402 58.45C95.1602 58.33 95.1602 58.2 95.1502 58.08C95.1302 57.65 95.0102 57.21 94.9402 56.78C94.9302 56.24 94.7102 55.72 94.3102 55.33C94.0002 55.04 93.6302 54.91 93.2602 54.79L93.2402 54.78C91.6002 54.19 89.9402 53.64 88.2902 53.06C87.5602 52.81 86.8202 52.71 86.1202 53.15C85.4602 53.57 85.2602 54.24 85.0802 54.94C84.8702 55.71 84.6702 56.47 84.4602 57.23C84.1702 58.33 83.8902 59.44 83.5702 60.53C83.5702 60.54 83.5602 60.55 83.5602 60.57C83.5902 60.51 83.6202 60.45 83.6502 60.39C83.6202 60.46 83.5802 60.53 83.5602 60.6C83.4302 60.9 83.3502 61.21 83.3502 61.51Z" fill="#856EFC"/>
<path d="M70.53 55.28C70.55 55.22 70.5599 55.16 70.5699 55.09C70.7099 54.47 70.8499 53.84 70.9899 53.22C71.0499 52.94 71.11 52.65 71.17 52.37C71.88 52.65 72.59 52.93 73.3 53.21C73.91 53.45 74.5199 53.69 75.1199 53.93C74.9699 54.82 74.82 55.72 74.66 56.61C74.36 56.51 74.07 56.41 73.77 56.32C73.12 56.11 72.4699 55.9 71.8099 55.7C71.3999 55.54 70.96 55.43 70.53 55.28ZM66.38 55.51C66.29 56.02 66.32 56.52 66.55 56.99C66.71 57.31 66.9499 57.55 67.2099 57.79C67.3399 57.92 67.48 58.04 67.61 58.17C68 58.54 68.4399 58.79 68.9499 58.95C70.2699 59.38 71.5999 59.8 72.9299 60.23C73.5799 60.44 74.23 60.64 74.88 60.85C75.04 60.9 75.1999 60.95 75.3699 61.01C75.6499 61.1 75.9299 61.15 76.2099 61.15C76.7699 61.15 77.3099 60.95 77.7299 60.48C78.1699 59.99 78.2299 59.38 78.3399 58.76C78.4099 58.38 78.4699 58 78.5399 57.62C78.6799 56.85 78.8099 56.08 78.9499 55.32C79.0799 54.57 79.2199 53.82 79.3499 53.07C79.3499 53.06 79.3499 53.05 79.3499 53.04C79.5299 52.11 79.0099 51.05 78.0599 50.77C78.0399 50.77 78.0199 50.76 78.0099 50.75C77.9899 50.74 77.9699 50.74 77.9499 50.73C77.3799 50.55 76.83 50.28 76.27 50.06C74.92 49.53 73.5699 49 72.2099 48.47C71.8499 48.33 71.49 48.18 71.13 48.04C70.75 47.89 70.3499 47.7 69.9299 47.68C69.1099 47.64 68.3399 48.05 67.9499 48.79C67.8299 49.04 67.7699 49.31 67.7099 49.59C67.6499 49.88 67.59 50.16 67.52 50.45C67.2 51.91 66.8699 53.36 66.5399 54.82C66.4799 55.05 66.42 55.28 66.38 55.51Z" fill="#856EFC"/>
<path d="M80.15 39.59C77.61 38.96 76.58 42.68 79.09 43.45C81.75 44.24 84.42 44.98 87.13 45.56C88.78 46.1 91.16 46.25 91.27 43.94C91.28 42.52 89.98 41.9 88.75 41.83C85.85 41.22 82.99 40.44 80.15 39.59Z" fill="#856EFC"/>
<path d="M75.8501 113.9C75.7901 111.28 71.9101 111.28 71.8501 113.9C71.9201 116.53 75.7901 116.53 75.8501 113.9Z" fill="#856EFC"/>
<path d="M70.0103 111.78C69.9503 109.16 66.0703 109.16 66.0103 111.78C66.0803 114.4 69.9503 114.4 70.0103 111.78Z" fill="#856EFC"/>
<path d="M64.1401 109.19C64.0701 106.57 60.2001 106.57 60.1401 109.19C60.2001 111.82 64.0801 111.82 64.1401 109.19Z" fill="#856EFC"/>
</svg>
